<mxfile host="app.diagrams.net" modified="2023-12-10T17:06:59.609Z" agent="Mozilla/5.0 (Windows NT 10.0; Win64; x64) AppleWebKit/537.36 (KHTML, like Gecko) Chrome/119.0.0.0 Safari/537.36" version="22.1.7" etag="Hz0FHLtYJ5loYm9QpL42" type="github">
  <diagram name="PÃ¡gina-1" id="1lDEEdr2UAmW09BX8hA5">
    <mxGraphModel>
      <root>
        <mxCell id="0" />
        <mxCell id="1" parent="0" />
      </root>
    </mxGraphModel>
  </diagram>
</mxfile>
